<svg id="Layer_1" data-name="Layer 1" xmlns="http://www.w3.org/2000/svg" xmlns:xlink="http://www.w3.org/1999/xlink" viewBox="0 0 187.902 188">
  <defs>
    <linearGradient id="linear-gradient" x1="-402.6774" y1="491.6633" x2="-538.7265" y2="363.1025" gradientTransform="matrix(1, 0, 0, -1, 564, 522)" gradientUnits="userSpaceOnUse">
      <stop offset="0" stop-color="#2bbecd"/>
      <stop offset="1" stop-color="#5161d0"/>
    </linearGradient>
  </defs>
  <g id="logoMark">
    <path id="logoMark_PathItem_" data-name="logoMark &lt;PathItem&gt;" d="M187.902,94A93.951,93.951,0,1,1,93.9509,0,93.9752,93.9752,0,0,1,187.902,94Z" style="fill: url(#linear-gradient)"/>
    <path id="logoMark_CompoundPathItem_" data-name="logoMark &lt;CompoundPathItem&gt;" d="M129.649,94.3152c0-33.5766-47.1861-22.2268-47.1861-37.36,0-5.675,4.9345-9.3,16.3456-9.3,8.79,0,17.2705,1.734,25.29,6.7783l6.939-17.1824c-7.556-5.0444-21.743-7.5666-30.841-7.5666-25.5974,0-39.013,11.8228-39.013,28.217,0,7.5666,2.6213,12.7687,6.6307,16.3941a24.78,24.78,0,0,0-9.869,20.3352c0,32.4735,47.4943,20.0205,47.4943,36.4145,0,5.675-5.089,9.3-14.0321,9.3-9.4064,0-20.3548-3.467-27.4482-8.67l-7.0935,17.34c7.4017,5.36,21.5885,9.301,34.2331,9.301,22.36,0,35.6207-11.823,35.6207-28.059,0-7.882-2.775-13.084-6.939-16.71C126.102,108.66,129.649,101.882,129.649,94.3152ZM78.762,92.8964c0-4.5715,2.93-8.3549,7.556-10.4038,11.4112,2.8375,22.513,4.2562,22.513,12.4532,0,4.7289-2.929,8.3552-7.401,10.4042C89.8647,102.512,78.762,101.251,78.762,92.8964Z" style="fill: #fff;fill-rule: evenodd"/>
  </g>
</svg>
